<svg xmlns="http://www.w3.org/2000/svg" width="494.321" height="855.02" viewBox="0 0 494.321 855.02"><defs><style>.a{fill:#b28b67;}.a,.b{fill-rule:evenodd;}.b{fill:#191847;}</style></defs><g transform="translate(0 0)"><g transform="translate(0 0)"><g transform="translate(1.267)"><path class="a" d="M94.217,439.139C41.672,500.816,6.108,576.4,12.051,661.1c17.123,244.036,356.828,190.352,422.908,67.183s58.229-435.595-27.174-457.609C373.727,261.9,301.172,283.4,227.329,327.909L273.679,0H0Z" transform="translate(0)"/></g><path class="b" d="M296.168,403.414q15.714-218.9,83.136-218.9c67.425,0,124.631,42.8,154.216,42.8,21.566,0,16.751-26.988,2.456-47-11.794-16.509-69.23-32.421-69.23-58.015s45.379-5.793,45.379-20.972c0-25.109,7.975-72.317-35.6-72.317-44.1,0-170.552,16.072-192.223,81.528q-20.978,63.365-27.127,262.61a68.475,68.475,0,0,1-76.579-67.939A68.216,68.216,0,0,1,201.2,256.274c-15.831-22.346-33.574-45.69-53.9-69.777C70.92,232.321,14.242,366.466,88.916,495.331c20.64,63.13,67.365,96.849,122.55,112.506,44.7,18.7,91.107,20.808,130.279,9.6,76.788-6.587,145.356-30,164.79-43.906,0-72.7-14.086-94.269-134.4-92.368C342.567,465.548,319.84,438.661,296.168,403.414Z" transform="translate(-53.889 230.736)"/></g></g></svg>