<svg xmlns="http://www.w3.org/2000/svg" xmlns:xlink="http://www.w3.org/1999/xlink" width="837.038" height="577.758" viewBox="0 0 837.038 577.758"><defs><style>.a,.c{fill:#6c63ff;}.a,.g,.p{opacity:0.1;}.b{fill:#30374e;}.d{fill:#444053;}.e{fill:#afc0e0;}.f{fill:#fff;opacity:0.2;}.h{fill:#e3e8f4;}.i{fill:none;stroke:#535461;stroke-miterlimit:10;stroke-width:2px;}.j{opacity:0.25;}.k{fill:url(#a);}.l{fill:#434175;}.m{opacity:0.05;}.n{fill:#565387;}.o{fill:#ee8e9e;}</style><linearGradient id="a" x1="0.5" y1="1" x2="0.5" gradientUnits="objectBoundingBox"><stop offset="0" stop-color="gray" stop-opacity="0.251"/><stop offset="0.54" stop-color="gray" stop-opacity="0.122"/><stop offset="1" stop-color="gray" stop-opacity="0.102"/></linearGradient></defs><g transform="translate(0.001 0)"><path class="a" d="M36.149,386.37c14.795-24.167,48.252-19.954,71.978-7.339s47.4,31.447,73.512,27.829c22.016-3.053,40.07-22.251,49.823-44.4s12.615-47.122,15.36-71.582q5.174-46.095,10.34-92.248c1.262-11.25,2.752-23.124,9.078-32.026,8.359-11.742,23.682-15.353,36.789-11.823s24.284,13,33.846,23.557c30.632,33.817,47.988,79.53,74.767,117.163,5.453,7.662,11.61,15.235,19.756,18.934,11.742,5.321,25.223,1.556,36.694-4.367,37.428-19.294,62.57-58.666,87.28-95.4,12.021-17.855,26.676-36.951,46.675-38.9,21.04-2.092,39.306,15.837,51.672,34.822,39.688,61.088,48.194,144.485,96.138,197.765,5.952,6.6,12.52,12.711,20.086,16.813a51.865,51.865,0,0,0,7.779,3.413c41.831,14.479,55.774,72.6,24.834,107.065-.668.734-1.35,1.468-2.04,2.2-4.594,4.851-9.8,9.438-16.006,10.883-5.776,1.336-11.742-.205-17.466-1.871-36.591-10.678-72.742-27-110.573-26.207-36.811.734-71.729,17.738-108.129,23.858-24.475,4.117-49.375,3.3-74.121,2.407q-123.629-4.447-247.206-10.348c-40.892-1.879-81.8-3.669-122.682-5.761-31.5-1.637-51.562-5.24-55.217-41.794C45.916,457.005,17.178,417.368,36.149,386.37Z" transform="translate(-29.72 -82.208)"/><ellipse class="b" cx="198.139" cy="27.689" rx="198.139" ry="27.689" transform="translate(381.549 522.38)"/><path class="c" d="M178.46,643s9.687-2.2,16.035,4.308c0,0-4.08,3.669-13.679-.4Z" transform="translate(-69.304 -212.384)"/><path class="c" d="M175.8,643s-5.739,8.131-2.1,16.476c0,0,4.961-2.385,4.822-12.806Z" transform="translate(-67.716 -212.479)"/><path class="c" d="M168.2,625.251s3.442-7.449,19.815,1.556c0,0-1.761,4.976-8.718,5.049S170.255,628.913,168.2,625.251Z" transform="translate(-66.573 -206.986)"/><path class="c" d="M163.968,625.68s-8.2-.382-7.735,18.288c0,0,5.233.734,8.5-5.416S166.265,629.224,163.968,625.68Z" transform="translate(-63.384 -207.87)"/><path class="c" d="M159,603.119s3.669-12.975,20.893-5.049c0,0-3.009,11.881-18.934,9.276Z" transform="translate(-64.125 -199.84)"/><path class="c" d="M150.29,578.083s7.764-13.386,23.844-2.525c0,0-4.543,12.381-22.229,7.009Z" transform="translate(-61.807 -193.401)"/><path class="c" d="M146.15,553.94s9.269-12.439,25.216-1.7c0,0-8.851,10.964-25.018,4.7Z" transform="translate(-60.705 -187.164)"/><path class="c" d="M142.41,530.059s9.364-12.96,24.651-2.312c0,0-10.773,11.617-24.46,5.188Z" transform="translate(-59.71 -180.69)"/><path class="c" d="M142.23,507.593s9.65-16.534,23.961-6.73c0,0-10.582,14.362-23.756,9.731Z" transform="translate(-59.662 -173.827)"/><path class="c" d="M144,482.859s10.274-16.439,24.284-5.269c0,0-12.549,14.494-24.122,8.183Z" transform="translate(-60.133 -167.425)"/><path class="c" d="M147.51,459.526s12.476-15.639,24.622-10.546c0,0-12.975,16.586-24.952,14.5Z" transform="translate(-60.979 -160.575)"/><path class="c" d="M152.308,437.014s14.34-19.081,23.756-13.665c0,0-10.5,14.743-24.644,17.136Z" transform="translate(-62.108 -153.767)"/><path class="c" d="M159.691,412.654s12.6-15.646,22.75-12.652c0,0-10.6,16.065-24.291,17.378Z" transform="translate(-63.899 -147.71)"/><path class="c" d="M166.938,389.259s14.076-15.118,20.776-13.078c0,0-9.8,16.409-21.224,16.255Z" transform="translate(-66.118 -141.422)"/><path class="c" d="M173.87,366.378s11.808-17.723,18.949-16.879c0,0-6.832,15.551-18.831,18.589Z" transform="translate(-68.082 -134.364)"/><path class="c" d="M180.791,338.5s10.56-13.694,16.74-14.076c0,0-7.86,17.862-16.93,18.347Z" transform="translate(-69.873 -127.697)"/><path class="c" d="M184.482,314.36l9.232-27.66s2.2,24.291-10.274,32.745Z" transform="translate(-70.629 -117.659)"/><path class="c" d="M187.9,274.7s.323-22.6-.976-24.343c0,0,9.151,18.156,1.57,34.279Z" transform="translate(-71.555 -107.988)"/><path class="c" d="M151.768,605.116s-11.933-6.326-18.178,11.544c0,0,10.641,6.076,19.815-7.2Z" transform="translate(-57.363 -202.108)"/><path class="c" d="M142.441,579.318s-14.472-5.467-20.071,13.122c0,0,11.353,6.715,21.657-8.63Z" transform="translate(-54.377 -195.333)"/><path class="c" d="M136.216,556.053s-10.854-11.089-25.216,1.71c0,0,10.23,9.68,25.414,1.314Z" transform="translate(-51.351 -188.154)"/><path class="c" d="M132.969,530.693s-11.008-11.6-24.739,1c0,0,12.226,10.076,24.952,1.871Z" transform="translate(-50.614 -181.295)"/><path class="c" d="M133.8,507.771s-8.337-17.224-23.359-8.564c0,0,9.438,15.14,22.926,11.551Z" transform="translate(-51.202 -173.565)"/><path class="c" d="M136.638,482.047s-8.315-17.54-23.528-8.124c0,0,10.759,15.859,23,10.957Z" transform="translate(-51.912 -166.745)"/><path class="c" d="M143.433,456.283s-4.139-19.558-17.283-20.453c0,0,4.168,20.644,15.786,24.13Z" transform="translate(-55.383 -157.346)"/><path class="c" d="M148.177,433.7s-2.693-23.711-13.547-23.822c0,0,1.578,18.031,12.557,27.263Z" transform="translate(-57.639 -150.44)"/><path class="c" d="M156.272,408.632s-4.557-19.565-15.022-21.282c0,0,2.569,19.081,14.333,26.214Z" transform="translate(-59.401 -144.445)"/><path class="c" d="M165.747,385.735s-1.468-20.6-8-23.205c0,0-2.649,18.919,6.348,25.965Z" transform="translate(-63.695 -137.839)"/><path class="c" d="M171.219,363.559s-2.312-21.172-9.034-23.719c0,0-1.1,16.945,8.146,25.172Z" transform="translate(-64.962 -131.801)"/><path class="c" d="M179.757,338.206s-1.2-17.253-6.128-21c0,0-3.361,19.22,3.926,24.629Z" transform="translate(-67.812 -125.779)"/><path class="c" d="M181.336,312.97l-6.458-28.43s-4.572,23.954,7.023,33.6Z" transform="translate(-68.114 -117.084)"/><path class="c" d="M177.975,276.77s-12.938-18.552-12.835-20.71c0,0,2.6,20.167,17.914,29.274Z" transform="translate(-65.759 -109.505)"/><path class="c" d="M177.5,266.011s-12.813-26.706-17.929-28.621c0,0,16.211,6.92,18.795,27.741Z" transform="translate(-64.277 -104.537)"/><path class="d" d="M180.274,329.483l-.734-.183c7.229-30.823,8.249-50.256,2.862-54.718l.5-.6C188.581,278.706,187.686,297.9,180.274,329.483Z" transform="translate(-69.591 -114.274)"/><path class="d" d="M151.848,421.184l-1.138-.316c.8-2.833,1.666-5.717,2.591-8.557,8.073-24.746,14.78-47.7,18.9-65.271l.932-.55c-4.124,17.613-10.648,41.413-18.706,66.181C153.506,415.5,152.64,418.366,151.848,421.184Z" transform="translate(-61.919 -133.571)"/><path class="d" d="M183.688,612.017c-.161-.154-16.307-16.05-28.709-44.209a170.53,170.53,0,0,1-13.657-51.936c-2.2-22.405.807-47.8,7.339-71.113l.939.969c-14.678,52.333-4.543,95.653,6.774,121.383,12.278,27.887,28.24,43.629,28.4,43.783Z" transform="translate(-59.23 -159.723)"/><path class="c" d="M223.53,558.38s5.871-1.343,9.7,2.605c0,0-2.473,2.2-8.271-.242Z" transform="translate(-81.298 -189.902)"/><path class="c" d="M221.937,558.39s-3.464,4.917-1.262,9.959c0,0,2.994-1.468,2.935-7.742Z" transform="translate(-80.343 -189.963)"/><path class="c" d="M217.34,547.647s2.077-4.5,11.962.947c0,0-1.064,3-5.269,3.046S218.595,549.863,217.34,547.647Z" transform="translate(-79.651 -186.639)"/><path class="c" d="M214.778,547.91s-4.961-.228-4.682,11.052c0,0,3.163.44,5.137-3.273S216.165,550.053,214.778,547.91Z" transform="translate(-77.72 -187.174)"/><path class="c" d="M211.75,534.268s2.253-7.845,12.645-3.068c0,0-1.813,7.185-11.441,5.607Z" transform="translate(-78.163 -182.316)"/><path class="c" d="M206.51,519.138s4.689-8.073,14.413-1.526c0,0-2.752,7.486-13.437,4.234Z" transform="translate(-76.768 -178.429)"/><path class="c" d="M204,504.539s5.607-7.522,15.243-1.027c0,0-5.343,6.6-15.118,2.84Z" transform="translate(-76.1 -174.655)"/><path class="c" d="M201.74,490.1s5.666-7.838,14.9-1.394c0,0-6.509,7.023-14.788,3.134Z" transform="translate(-75.499 -170.742)"/><path class="c" d="M201.64,476.515s5.871-9.988,14.479-4.066c0,0-6.4,8.682-14.362,5.871Z" transform="translate(-75.472 -166.592)"/><path class="c" d="M202.68,461.567s6.231-9.944,14.678-3.214c0,0-7.588,8.763-14.589,4.946Z" transform="translate(-75.749 -162.718)"/><path class="c" d="M204.833,447.466s7.537-9.452,14.883-6.37c0,0-7.845,10.025-15.066,8.762Z" transform="translate(-76.273 -158.583)"/><path class="c" d="M207.726,433.852s8.667-11.529,14.362-8.263c0,0-6.348,8.917-14.9,10.362Z" transform="translate(-76.949 -154.466)"/><path class="c" d="M212.2,419.143s7.618-9.46,13.767-7.647c0,0-6.407,9.709-14.677,10.5Z" transform="translate(-78.041 -150.809)"/><path class="c" d="M216.572,404.982s8.506-9.137,12.557-7.9c0,0-5.915,9.915-12.828,9.827Z" transform="translate(-79.374 -147.003)"/><path class="c" d="M220.76,391.149s7.141-10.715,11.456-10.216c0,0-4.124,9.4-11.382,11.243Z" transform="translate(-80.561 -142.733)"/><path class="c" d="M224.957,374.293s6.385-8.278,10.12-8.513c0,0-4.755,10.8-10.238,11.074Z" transform="translate(-81.646 -138.704)"/><path class="c" d="M227.17,359.7l5.57-16.7s1.321,14.677-6.231,19.815Z" transform="translate(-82.091 -132.642)"/><path class="c" d="M229.244,335.724s.191-13.657-.594-14.714c0,0,5.533,10.971.947,20.725Z" transform="translate(-82.66 -126.79)"/><path class="c" d="M207.388,535.481s-7.207-3.831-11.008,6.972c0,0,6.436,3.669,11.984-4.344Z" transform="translate(-74.073 -183.69)"/><path class="c" d="M201.768,519.836s-8.755-3.3-12.138,7.933c0,0,6.862,4.058,13.092-5.211Z" transform="translate(-72.276 -179.582)"/><path class="c" d="M197.993,505.813s-6.554-6.7-15.243,1.027c0,0,6.187,5.871,15.367.793Z" transform="translate(-70.445 -175.253)"/><path class="c" d="M196.036,490.483s-6.656-7.009-14.956.609c0,0,7.39,6.084,15.074,1.13Z" transform="translate(-70.001 -171.108)"/><path class="c" d="M196.537,476.588s-5.042-10.414-14.127-5.181c0,0,5.71,9.151,13.863,6.987Z" transform="translate(-70.355 -166.423)"/><path class="c" d="M198.245,461.06s-5.027-10.6-14.245-4.91c0,0,6.5,9.592,13.907,6.6Z" transform="translate(-70.778 -162.307)"/><path class="c" d="M202.36,445.516s-2.5-11.83-10.45-12.366c0,0,2.517,12.476,9.54,14.582Z" transform="translate(-72.883 -156.633)"/><path class="c" d="M205.219,431.846S203.6,417.513,197,417.44c0,0,.954,10.905,7.588,16.49Z" transform="translate(-74.238 -152.452)"/><path class="c" d="M210.118,416.692s-2.752-11.83-9.078-12.872c0,0,1.556,11.529,8.667,15.844Z" transform="translate(-75.313 -148.828)"/><path class="c" d="M215.848,402.852s-.9-12.476-4.829-14.032c0,0-1.607,11.441,3.831,15.7Z" transform="translate(-77.91 -144.836)"/><path class="c" d="M219.161,389.44s-1.394-12.8-5.46-14.34c0,0-.668,10.274,4.924,15.221Z" transform="translate(-78.676 -141.185)"/><path class="c" d="M224.329,374.116s-.734-10.428-3.669-12.7c0,0-2.033,11.625,2.37,14.89Z" transform="translate(-80.409 -137.544)"/><path class="c" d="M225.3,358.857l-3.9-17.187s-2.767,14.487,4.242,20.314Z" transform="translate(-80.586 -132.288)"/><path class="c" d="M223.247,336.98s-7.816-11.206-7.757-12.52c0,0,1.563,12.19,10.825,17.694Z" transform="translate(-79.158 -127.708)"/><path class="c" d="M222.929,330.473s-7.75-16.145-10.839-17.283c0,0,9.8,4.183,11.36,16.776Z" transform="translate(-78.253 -124.709)"/><path class="d" d="M224.622,368.833l-.462-.11c4.4-18.633,4.99-30.383,1.732-33.076l.3-.367C229.649,338.142,229.106,349.752,224.622,368.833Z" transform="translate(-81.466 -130.588)"/><path class="d" d="M207.45,424.293l-.69-.2c.484-1.71,1.013-3.449,1.57-5.137,4.866-14.964,8.931-28.841,11.419-39.46l.565-.338c-2.5,10.641-6.436,25.04-11.309,40.018C208.448,420.873,207.927,422.583,207.45,424.293Z" transform="translate(-76.835 -142.265)"/><path class="d" d="M226.694,539.651c-.1-.1-9.856-9.7-17.356-26.728a103.272,103.272,0,0,1-8.256-31.4c-1.343-13.547.492-28.9,4.447-43l.565.587c-8.873,31.637-2.745,57.829,4.1,73.388,7.427,16.879,17.07,26.368,17.173,26.464Z" transform="translate(-75.208 -158.065)"/><path class="e" d="M237.938,587.761a28.069,28.069,0,0,0-5.5,1.571c-39.585,15.808-38.925,119.284-38.925,119.284H181.855s-3.669-44.407-19.661-107.762c-14.406-57,44.678-108.085,56.677-117.772,1.35-1.079,2.1-1.651,2.1-1.651C280.481,503.3,237.938,587.761,237.938,587.761Z" transform="translate(-64.377 -169.482)"/><path class="f" d="M225.314,483.233c-1.372-.631-2.789-1.233-4.293-1.783,0,0-.734.572-2.1,1.651-12,9.687-71.083,60.772-56.677,117.772,15.991,63.355,19.624,107.748,19.624,107.748h6.553s-3.633-44.407-19.661-107.762C154.414,544.123,212.926,493.229,225.314,483.233Z" transform="translate(-64.39 -169.487)"/><path class="e" d="M500.948,600.868c-16.028,63.356-19.638,107.748-19.638,107.748H469.633S470.367,600.472,428,588.4a23.162,23.162,0,0,0-2.8-.653S382.64,503.285,442.172,481.43c0,0,.6.448,1.688,1.321C454.89,491.579,515.515,543.208,500.948,600.868Z" transform="translate(-131.046 -169.482)"/><path class="g" d="M259.306,587.766a28.068,28.068,0,0,0-5.5,1.571A718.625,718.625,0,0,1,240.24,483.1c1.35-1.079,2.1-1.651,2.1-1.651C301.849,503.3,259.306,587.766,259.306,587.766Z" transform="translate(-85.745 -169.487)"/><path class="g" d="M443.89,482.781a661.223,661.223,0,0,1-15.859,105.678,23.139,23.139,0,0,0-2.8-.653S382.67,503.344,442.2,481.489C442.18,481.46,442.782,481.908,443.89,482.781Z" transform="translate(-131.054 -169.497)"/><path class="h" d="M377.27,490.653q-6.165,24.321-14.45,49.9s-26.214,27.308-89.533,0c0,0-6.326-17.833-13.283-48.15-15.316-66.658-33.685-193.684,5.453-324.16a485.641,485.641,0,0,1,49.3-111.887s33.435,38.389,57.976,111.865S412.892,350.277,377.27,490.653Z" transform="translate(-86.222 -56.36)"/><circle class="e" cx="52.567" cy="52.567" r="52.567" transform="translate(181.289 162.898)"/><path class="c" d="M372.144,336.483a37.281,37.281,0,0,1-60.912,28.834,37.67,37.67,0,0,1-6.987-7.581,36.7,36.7,0,0,1-2.407-3.956,37.207,37.207,0,0,1-4.249-17.3V335.6a37.325,37.325,0,0,1,27.153-35.021,38.551,38.551,0,0,1,8.983-1.365h1.115A37.281,37.281,0,0,1,372.144,336.483Z" transform="translate(-101.007 -120.988)"/><path class="e" d="M381.207,168.225c-59.642,28.555-107.307,0-107.307,0A485.64,485.64,0,0,1,323.238,56.36S356.674,94.749,381.207,168.225Z" transform="translate(-94.703 -56.36)"/><path class="e" d="M383.775,648.14q-4.183,16.468-9.32,33.5-2.436,8.124-5.137,16.38s-26.214,27.308-89.533,0c0,0-2.055-5.79-5.137-16.38-2.3-8-5.174-18.721-8.168-31.769,0,0,23.572,10.061,57.029,10.061a157.13,157.13,0,0,0,60.266-11.793Z" transform="translate(-92.728 -213.847)"/><path class="h" d="M377.417,693.79q-2.437,8.124-5.137,16.38s-26.214,27.308-89.533,0c0,0-2.055-5.79-5.137-16.38C277.6,693.79,342.14,712.357,377.417,693.79Z" transform="translate(-95.69 -225.996)"/><path class="f" d="M324.771,300.5l-.081.059-27.08,34.962v.888a37.207,37.207,0,0,0,4.249,17.3l31.909-54.571Z" transform="translate(-101.012 -120.97)"/><path class="f" d="M335.824,343.01l-22.178,33.208a37.668,37.668,0,0,1-6.987-7.581l26.419-28.357Z" transform="translate(-103.421 -131.918)"/><path class="f" d="M287.437,540.544s-6.326-17.841-13.283-48.15c-15.316-66.665-33.685-193.692,5.453-324.167A487.429,487.429,0,0,1,322.8,66.886c-4.968-6.964-8.073-10.516-8.073-10.516a485.6,485.6,0,0,0-49.316,111.857c-39.138,130.476-20.769,257.5-5.453,324.167,6.957,30.309,13.283,48.15,13.283,48.15,25.018,10.781,44.238,13.041,58.343,11.837C319.53,551.464,304.9,548.066,287.437,540.544Z" transform="translate(-86.209 -56.363)"/><path class="i" d="M966.7,728.746s34.3-42.682,32.026-85.43a82.964,82.964,0,0,1,13.606-50.681,139.573,139.573,0,0,1,16.145-19.815" transform="translate(-279.074 -193.803)"/><path class="c" d="M1048.8,533.521c-2.451,5.952,1.218,27.652,1.218,27.652s17.885-12.828,20.336-18.78a11.654,11.654,0,0,0-21.554-8.873Z" transform="translate(-300.699 -181.423)"/><path class="c" d="M1006.258,566.078c1.182,6.326,16.057,22.545,16.057,22.545s8.073-20.482,6.862-26.816a11.657,11.657,0,1,0-22.919,4.271Z" transform="translate(-289.548 -188.337)"/><path class="c" d="M974.763,641.307c4.212,4.866,25.245,11.36,25.245,11.36s-3.405-21.745-7.617-26.618a11.653,11.653,0,1,0-17.615,15.259Z" transform="translate(-280.466 -206.897)"/><path class="c" d="M965.23,705.516c3.324,5.511,22.956,15.463,22.956,15.463s.323-22.016-3-27.52a11.657,11.657,0,0,0-19.954,12.058Z" transform="translate(-278.235 -224.409)"/><path class="c" d="M1048.378,607.916c-5.974,2.385-27.638-1.5-27.638-1.5s13-17.752,18.985-20.145a11.657,11.657,0,0,1,8.652,21.649Z" transform="translate(-293.455 -197.159)"/><path class="c" d="M1036.42,681.9c-6.414.492-25.92-9.7-25.92-9.7s17.716-13.056,24.137-13.547a11.66,11.66,0,1,1,1.784,23.252Z" transform="translate(-290.73 -216.634)"/><path class="c" d="M1013.83,752.515c-6.245,1.57-27.19-5.181-27.19-5.181s15.257-15.859,21.5-17.422a11.654,11.654,0,0,1,5.688,22.6Z" transform="translate(-284.38 -235.514)"/><path class="j" d="M1048.8,533.521c-2.451,5.952,1.218,27.652,1.218,27.652s17.885-12.828,20.336-18.78a11.654,11.654,0,0,0-21.554-8.873Z" transform="translate(-300.699 -181.423)"/><path class="j" d="M1006.258,566.078c1.182,6.326,16.057,22.545,16.057,22.545s8.073-20.482,6.862-26.816a11.657,11.657,0,1,0-22.919,4.271Z" transform="translate(-289.548 -188.337)"/><path class="j" d="M974.763,641.307c4.212,4.866,25.245,11.36,25.245,11.36s-3.405-21.745-7.617-26.618a11.653,11.653,0,1,0-17.615,15.259Z" transform="translate(-280.466 -206.897)"/><path class="j" d="M965.23,705.516c3.324,5.511,22.956,15.463,22.956,15.463s.323-22.016-3-27.52a11.657,11.657,0,0,0-19.954,12.058Z" transform="translate(-278.235 -224.409)"/><path class="j" d="M1048.378,607.916c-5.974,2.385-27.638-1.5-27.638-1.5s13-17.752,18.985-20.145a11.657,11.657,0,0,1,8.652,21.649Z" transform="translate(-293.455 -197.159)"/><path class="j" d="M1036.42,681.9c-6.414.492-25.92-9.7-25.92-9.7s17.716-13.056,24.137-13.547a11.66,11.66,0,1,1,1.784,23.252Z" transform="translate(-290.73 -216.634)"/><path class="j" d="M1013.83,752.515c-6.245,1.57-27.19-5.181-27.19-5.181s15.257-15.859,21.5-17.422a11.654,11.654,0,0,1,5.688,22.6Z" transform="translate(-284.38 -235.514)"/><path class="i" d="M967.12,740.245s48.656-25.128,63.9-65.124A82.93,82.93,0,0,1,1064,634.3a139.382,139.382,0,0,1,22.75-11.566" transform="translate(-279.186 -207.085)"/><path class="c" d="M1139.761,587.279c-4.653,4.455-10.091,25.781-10.091,25.781s21.547-4.484,26.2-8.931a11.666,11.666,0,1,0-16.109-16.879Z" transform="translate(-322.444 -196.784)"/><path class="c" d="M1090.087,599.82c-1.468,6.267,5.541,27.153,5.541,27.153s15.624-15.463,17.136-21.767a11.654,11.654,0,1,0-22.677-5.387Z" transform="translate(-311.856 -198.603)"/><path class="c" d="M1030.755,655.829c1.879,6.157,18.479,20.615,18.479,20.615s5.7-21.282,3.823-27.41a11.657,11.657,0,1,0-22.3,6.8Z" transform="translate(-295.985 -211.886)"/><path class="c" d="M996.026,710.671c.807,6.392,14.722,23.44,14.722,23.44s9.218-19.983,8.4-26.376a11.655,11.655,0,0,0-23.125,2.936Z" transform="translate(-286.853 -226.996)"/><path class="c" d="M1110.588,656.852c-6.436-.235-24.658-12.571-24.658-12.571s19.081-10.957,25.517-10.722a11.655,11.655,0,0,1-.859,23.293Z" transform="translate(-310.804 -209.966)"/><path class="c" d="M1070.761,719.929c-6.069-2.15-19.771-19.374-19.771-19.374s21.5-4.748,27.557-2.6a11.656,11.656,0,0,1-7.786,21.972Z" transform="translate(-301.505 -226.956)"/><path class="c" d="M1020.87,775.224c-6.341-1.094-22.75-15.756-22.75-15.756s20.38-8.307,26.72-7.214a11.655,11.655,0,0,1-3.963,22.97Z" transform="translate(-287.435 -241.528)"/><path class="k" d="M950.149,640.976l-37.714-54.7s-.734-13.54-3.17-16.7-.528-10.2-.528-10.2,2.642-3.868.352-4.22-.352-8.975-.352-8.975l-.176-13.716s2.114-13.21.352-16.351a5.188,5.188,0,0,1,.176-5.629s2.114-7.566,0-9.5-1.585-13.724-1.057-23.044-3.706-14.6-3.706-16.006-13.944-15.125-13.944-16.351-8.807-6.333-14.1-7.742-7.933-2.459-7.757-3.163-8.286-3.515-8.286-3.515-7.4-.528-10.23-4.227-11.441-4.755-11.691-4.792c-.051-.242-.11-.492-.161-.734s-.11-.528-.161-.793c.668-1.123,1.284-2.268,1.842-3.449.169-.36.33-.734.484-1.071,3.09-.139,6.26-.8,8.682-2.693a11.823,11.823,0,0,0,4.22-8.432,18.486,18.486,0,0,0-2.062-9.372c-1.541-3.17-3.809-6.451-3.031-9.885.345-1.468,1.233-2.789,1.688-4.242.859-2.752.066-5.776-1.27-8.329s-3.192-4.8-4.675-7.273a28.4,28.4,0,0,1-3.721-10.274c-.3-1.908-.418-3.919-1.38-5.6a10.428,10.428,0,0,0-3.09-3.119,30.874,30.874,0,0,0-18.949-5.746c-4.8.169-9.584,1.468-14.347.873a51.638,51.638,0,0,1-8.381-2.2c-5.915-1.747-12.733-2.466-17.884.917s-7.2,10.039-10.685,15.243c-3.082,4.609-7.6,8.469-9.951,13.342a1.051,1.051,0,0,1,.073-.279,15.968,15.968,0,0,0-1.314,3.552c-.9,3.831-.147,7.838.785,11.661.477,1.974,1.138,4.117,2.847,5.211s4.132.851,6.157,1.211c-.073.33-.161.668-.235,1.005a40.29,40.29,0,0,0,27.953,46.968v1.072a26.685,26.685,0,0,1-.183,3.024h0s-17.723-3.669-22.486-1.174-14.105,4.4-15.514,5.8-4.932.352-8.073,8.623-3.523,16.7-7.581,20.548-6.165,6.51-6.341,9.328.528,3.515-1.064,4.4-3.875,4.572-3.17,5.981c0,0,.881,3.515-1.937,5.269s-2.473,5.277-2.473,5.277-1.057,3.875-3.523,4.748-4.058,6.686-4.058,6.686l-8.021,9.21-15.844-17.54a6.678,6.678,0,0,0-9.43-.484l-7.779,7.016a15.368,15.368,0,0,0-7.786,4.638,20.073,20.073,0,0,0-4.029,6l-4.264,3.831a10.825,10.825,0,0,0-1.094,11.948l10.15,11.221.066.1a17.925,17.925,0,0,0-9.819,4c-15.155,13.364-15.338,25.686-13.041,31.3s21.5,27.263,21.5,27.263,11.162,14.509,27.278,22.229h0l-.125.125c-.315.338-.631.734-.939,1.1l-.264.338-.242.338-.286.426c-.081.11-.154.227-.228.345s-.206.33-.3.506l-.2.338c-.117.22-.242.448-.36.683l-.117.227c-.147.308-.294.624-.433.954-.051.117-.1.242-.147.36-.088.227-.183.462-.272.734s-.11.3-.161.455-.154.455-.228.69-.1.33-.147.492-.147.514-.213.778-.081.308-.125.477c-.1.4-.191.822-.271,1.262a3.106,3.106,0,0,1-.088.5q-.088.44-.154.9c-.037.213-.059.426-.088.638s-.073.58-.11.873l-.066.675c0,.323-.059.661-.081,1a3.479,3.479,0,0,1-.037.616c0,.558-.059,1.115-.066,1.7-.352,20.549.851,23.565.851,23.565s2.488,6.553,9.357,7.023a11.965,11.965,0,0,0,3.016-.161c9.166-1.585,30.669-5.277,38.25-3.868,4.557.844,13-.4,19.007-1.541l1.578-.3,1.1,3.493,3.486-.954,2.936,1.71,1.871,1.072c3.479,11.8,17.613,7.779,17.613,7.779l3.317,1.923,34.022.881s7.339,4.4,12.043,5.783a11.174,11.174,0,0,0,1.71.374,77.212,77.212,0,0,0,9.482.176c2.605-.066,4.623-.176,4.623-.176s-.345-9.24-.844-19.58c13-.543,24.534-1.358,31.513-2.583,18.171-3.192,25.752-19.712,28.54-28.54a83.019,83.019,0,0,1,1.784,10.957,78.361,78.361,0,0,0,2.825,9.5,32.1,32.1,0,0,0,3.875,7.031c13.4-4.572,5.291-11.426,2.466-14.421s1.945-5.453,1.945-5.453,3.669-2.458,3.346-4.748-.528-4.748,11.456-4.572S950.149,640.976,950.149,640.976ZM763.995,528.693c.154,1.005,1.827,11.845,3.339,14.677.316.6.44,2.737.4,5.79-7.1-.565-14.5-.866-14.5-.866a1.7,1.7,0,0,1,.382.9l-1.116-.25-1.622-.4,13.085-19.9Zm-25.921,41.244,12.292,1.952,1.035.161a40.443,40.443,0,0,0-.639,5.8c0,.184.279.4.675.661a15.833,15.833,0,0,0-.242,2.935c.2.976,5.944,3.075,12.535,4.822-.088.352-.176.69-.264,1.005h0c-5.82-3.06-14.993-4.491-16.05-6.766s-32.29-13.21-32.29-13.21-1.138-.6-3.1-1.556l8.219,1.556,2.26-.227a123.243,123.243,0,0,0,15.573,2.848Z" transform="translate(-193.033 -131.403)"/><path class="l" d="M926.171,737.194s-4.888,29.524-29.7,33.89-107.63,3.493-107.63,3.493-47.35-6.81-64.471-46.821-28.129-55.914-13.452-56.611,93.826,26.735,98.339,27.08S930.538,637.424,926.171,737.194Z" transform="translate(-209.183 -219.966)"/><path class="m" d="M926.171,737.194s-4.888,29.524-29.7,33.89-107.63,3.493-107.63,3.493-47.35-6.81-64.471-46.821-28.129-55.914-13.452-56.611,93.826,26.735,98.339,27.08S930.538,637.424,926.171,737.194Z" transform="translate(-209.183 -219.966)"/><path class="n" d="M703.739,789.677s2.473,6.517,9.276,6.979a12.056,12.056,0,0,0,2.987-.161c9.085-1.57,30.4-5.24,37.912-3.845,4.521.844,12.879-.4,18.831-1.526,3.963-.734,6.854-1.468,6.854-1.468s-6.986-23.234-7.867-23.932-31.447-19.044-31.447-19.044l-24.218-1.739H716a12.73,12.73,0,0,0-8.2,4.822c-2.561,3.09-4.755,8.168-4.9,16.49C702.551,786.7,703.739,789.677,703.739,789.677Z" transform="translate(-208.851 -239.608)"/><path class="m" d="M703.74,789.685s2.473,6.517,9.276,6.979a99.483,99.483,0,0,1-6.6-9.6l.125-16.945a29.787,29.787,0,0,1,9.54-25.15H716s-12.755.866-13.107,21.282S703.74,789.685,703.74,789.685Z" transform="translate(-208.852 -239.616)"/><path class="g" d="M842.085,736.213,864.622,718.6l35.468-34.947s-3.831-.184-9.607-.433c-1.468.917-5.467,3.8-5.614,7.339-.176,4.271-9.592.294-14.479,2.737s-28.827,33.083-33.024,32.885-7.508-2.128-9.261.844c0,.066-.081.125-.125.191Z" transform="translate(-242.157 -223.183)"/><path class="g" d="M709.6,749.776c.8.389,1.607.734,2.437,1.116,17.129,7.339,38.264,22.75,39.842,25.51.954,1.7,13.21,9.144,22.669,14.721,3.963-.734,6.854-1.468,6.854-1.468s-6.986-23.234-7.867-23.932-31.446-19.044-31.446-19.044l-24.218-1.739H717.8A12.785,12.785,0,0,0,709.6,749.776Z" transform="translate(-210.653 -239.608)"/><path class="l" d="M644.45,670.507c2.268,5.592,21.282,27.087,21.282,27.087s12.05,15.72,29.179,23.058,38.264,22.75,39.835,25.51c1.013,1.8,14.677,10.017,24.277,15.668l2.15,1.255,4.77,2.767,2.525,1.468s5.871-4.7,11.676-9.423,11.47-9.357,11.566-9.621c.169-.521,2.436-6.465,1.915-6.81-.271-.184-1.468-2.605-3.669-5.409a24.821,24.821,0,0,0-8.9-7.339c-8.073-3.669-11.529-12.021-11.529-12.021s-.734-.558-1.93-1.292c-2.07-1.306-5.394-3.185-7.852-3.5-3.853-.484-11.008-8.344-11.008-8.344s-4.9-3.148-6.818-7.163c-1.835-3.831-28.929-22.442-31.439-24.159l65.689,42.183,15.72,10.106,22.537-17.613L849.9,671.968s-4.77-.235-11.742-.528c-17.239-.734-47.856-1.915-51.724-1.042a29.478,29.478,0,0,1-9.614.624s-8.718.4-14.487-2.649-14.861-4.469-15.91-6.722-31.975-13.1-31.975-13.1-42.1-22.361-57.132-9.078S642.175,664.922,644.45,670.507Z" transform="translate(-193.029 -210.419)"/><path class="o" d="M829.82,489.753l5.416,17.995,6.986,40.532,25.686,1.747,7.434-12.329,7.449-12.307s4.623-16.38,7.948-32.225c2.935-14.017,4.858-27.623,1.659-29.1-2.833-1.314-4.7-6.032-5.871-11.111-.154-.624-.294-1.262-.426-1.9a98.759,98.759,0,0,1-1.7-13.026s-53.815-2.789-46.3,19.4a35.362,35.362,0,0,1,2.026,11.8,28.126,28.126,0,0,1-.183,3,25.172,25.172,0,0,1-10.12,17.525Z" transform="translate(-242.647 -157.902)"/><path class="h" d="M814.58,499.2l1.923,30.573,4.367,26.031,4.895,12.057,4.367,65.961s42.132,4.873,52.377-.088a4.5,4.5,0,0,0,1.857-1.468c12.373-18.662,8.315-72.793,8.315-72.793l4.719-34.954-3.148-18.141-7.6-.807-5.871-.624s-1.321,1.629-3.229,4.146c-5.181,6.84-14.677,20.292-14.068,25.906.866,7.691-1.049,15.551-4.022,16.776s-5.416,3.317-5.937,1.226-1.049-2.62-.528-5.592-2.275-12.058-2.275-12.058-4.711-10.656-4.4-15.2-.521-9.79-1.923-11.008-3.317-2.451-1.747-8.073S835.76,484.6,835.76,484.6Z" transform="translate(-238.591 -170.325)"/><path class="g" d="M890.383,568.464l1.747,52.245L902.22,626.3a4.513,4.513,0,0,0,1.857-1.468c12.38-18.692,8.322-72.815,8.322-72.815l4.719-34.947-3.148-18.134-7.6-.807c2.935-14.017,4.858-27.623,1.666-29.1-2.84-1.314-4.7-6.032-5.915-11.111h0l-5.431,36.987s.455,3.332.616,6.766c.125,2.554.081,5.137-.44,6.51-1.226,3.148-.352,8.74-.352,8.74-3.148,5.548-4.719,15.83-5.489,25.759C889.987,555.885,890.383,568.464,890.383,568.464Z" transform="translate(-258.744 -163.225)"/><path class="n" d="M902.634,456.82s8.807,1.094,11.6,4.763,10.135,4.176,10.135,4.176,8.388,2.8,8.212,3.493,2.444,1.754,7.691,3.148,13.944,6.465,13.944,7.691,13.8,14.846,13.8,16.248,4.2,6.6,3.669,15.9-1.049,20.967,1.049,22.89,0,9.438,0,9.438a5.137,5.137,0,0,0-.11,5.592c1.747,3.148-.345,16.255-.345,16.255l.169,13.628s-1.923,8.557.352,8.909-.352,4.191-.352,4.191-1.923,6.994.528,10.135,3.141,16.6,3.141,16.6l37.428,54.307s.528,9.959-11.353,9.783-11.742,2.275-11.36,4.543-3.317,4.719-3.317,4.719-4.719,2.444-1.923,5.416,10.832,9.783-2.444,14.325a31.679,31.679,0,0,1-3.846-6.987,79.064,79.064,0,0,1-2.8-9.43s-1.226-13.283-3.669-15.03-2.1-10.135-2.1-10.135,3.493-6.81-1.394-9.606-75.9-42.073-75.9-42.073l-1.747-52.245s-1.226-38.609,6.113-51.54c0,0-.873-5.592.352-8.733s-.176-13.283-.176-13.283Z" transform="translate(-259.092 -162.932)"/><path class="g" d="M821.073,484.647s-17.562-3.618-22.28-1.174-13.944,4.4-15.411,5.768-4.895.352-8.036,8.564-3.5,16.593-7.515,20.438-6.113,6.465-6.289,9.262.521,3.493-1.049,4.4-3.846,4.543-3.148,5.944,36.408,32.107,36.408,32.107,1.754,11.742,3.324,14.678-1.747,43.856-5.24,46.652,23.587,2.539,23.587,2.539,1.218-26.823,2.268-28.225-.734-30.089-.734-30.089-.176-24.46,2.1-30.925,2.018-27.931,2.018-27.931,2.011-12.894,4.455-15.9S821.073,484.647,821.073,484.647Z" transform="translate(-223.324 -169.8)"/><path class="n" d="M820.363,483.937s-17.569-3.618-22.288-1.174-13.944,4.367-15.375,5.768-4.888.345-8.073,8.557-3.493,16.6-7.515,20.446S761,524,760.824,526.8s.528,3.493-1.042,4.367-3.845,4.543-3.148,5.937,36.342,32.151,36.342,32.151,1.747,11.742,3.317,14.677-1.747,43.849-5.24,46.645,23.587,2.539,23.587,2.539,1.226-26.823,2.275-28.218-.734-30.089-.734-30.089-.169-24.46,2.1-30.926,2.018-27.961,2.018-27.961,2.011-12.894,4.447-15.9S820.363,483.937,820.363,483.937Z" transform="translate(-223.135 -169.611)"/><path class="g" d="M840.739,457.425a35.359,35.359,0,0,1,2.026,11.8,40.091,40.091,0,0,0,45.977-18.171,98.778,98.778,0,0,1-1.7-13.026S833.232,435.24,840.739,457.425Z" transform="translate(-245.361 -157.902)"/><path class="o" d="M804.82,412.356a40.011,40.011,0,1,0,.866-8.315,40.011,40.011,0,0,0-.866,8.315Z" transform="translate(-235.994 -140.441)"/><path class="n" d="M757.086,553.06l-9.607,2.972s.873,3.493-1.923,5.24-2.444,5.247-2.444,5.247-1.049,3.838-3.493,4.711-4.022,6.6-4.022,6.6l-8.036,9.261s-2.972,2.444-2.444,3.669-3.148,1.571-3.148,1.571l1.923,31.131,16.6,3.148,10.274-1.049,8.388-3.148,7.339-4.4,3.346-8.491,14.677-22.361Z" transform="translate(-213.945 -188.544)"/><path class="o" d="M709.763,603.083s-21.282-30.757-37.215-14.156,6.465,43.5,11.705,42.631,30.228-2.268,30.228-2.268Z" transform="translate(-199.294 -196.781)"/><rect class="b" width="45.075" height="51.224" rx="12.62" transform="translate(459.519 408.859) rotate(-42.05)"/><rect class="g" width="45.075" height="51.224" rx="12.62" transform="translate(459.519 408.859) rotate(-42.05)"/><rect class="b" width="45.075" height="51.224" rx="12.62" transform="translate(460.12 406.326) rotate(-42.05)"/><circle class="c" cx="9.959" cy="9.959" r="9.959" transform="translate(483.491 401.554)"/><circle class="g" cx="9.959" cy="9.959" r="9.959" transform="translate(483.491 401.554)"/><circle class="c" cx="9.959" cy="9.959" r="9.959" transform="translate(484.049 400.292)"/><path class="o" d="M706.5,614.846c-.176,23.066,47.526,27.953,47.526,27.953l12.182,1.937,5.46.866,2.275-22.515s-2.5-.374-5.629-1.1c-4.616-1.079-10.6-2.935-11.852-5.541C754.37,612.079,706.669,591.787,706.5,614.846Z" transform="translate(-209.828 -202.107)"/><path class="g" d="M806,404.1a4.749,4.749,0,0,1,2.936,1.306c1.35,1.431,1.424,3.97,3.178,4.851a3.611,3.611,0,0,0,2.084.242c4.645-.66,7.339-5.871,11.793-7.339a11.89,11.89,0,0,1,7.816.668A5.82,5.82,0,0,1,836.4,405.5c1.468,1.93.448,4.77,1.138,7.111.961,3.244,4.836,4.535,8.19,4.961s7.133.66,9.372,3.192a8.505,8.505,0,0,1,1.666,6.759,5.347,5.347,0,0,0,0,2.5c.925,2.62,5.46,2.2,6.642.161.866-1.5.6-2.752,2.642-3.17a8.7,8.7,0,0,1,4.279.734,31.343,31.343,0,0,0,11.067,1.7A40.018,40.018,0,1,0,806,404.1Z" transform="translate(-236.308 -140.501)"/><path class="l" d="M853.175,421.192a5.352,5.352,0,0,1,0-2.5,8.512,8.512,0,0,0-1.666-6.759c-2.2-2.532-6.018-2.774-9.372-3.192s-7.229-1.71-8.19-4.954c-.69-2.341.352-5.189-1.137-7.119a5.725,5.725,0,0,0-2.583-1.659,12.059,12.059,0,0,0-7.823-.675c-4.455,1.468-7.148,6.693-11.793,7.339a3.61,3.61,0,0,1-2.084-.242c-1.754-.881-1.827-3.42-3.178-4.844-2.121-2.246-6.15-.8-8.748-2.466-1.7-1.093-2.348-3.214-2.818-5.174-.925-3.8-1.666-7.786-.778-11.588,1.519-6.5,7.339-10.957,11.008-16.5,3.457-5.174,5.394-11.742,10.59-15.147s11.867-2.649,17.723-.91a54.7,54.7,0,0,0,8.3,2.2c4.726.58,9.467-.734,14.223-.866a30.543,30.543,0,0,1,18.78,5.7,10.392,10.392,0,0,1,3.068,3.1c.947,1.673,1.071,3.669,1.358,5.563a28.435,28.435,0,0,0,3.669,10.223c1.468,2.458,3.31,4.69,4.638,7.229s2.106,5.541,1.255,8.271c-.448,1.468-1.336,2.737-1.666,4.212-.778,3.413,1.468,6.671,3,9.819a18.42,18.42,0,0,1,2.04,9.313,11.743,11.743,0,0,1-4.183,8.374c-2.473,1.937-5.724,2.583-8.858,2.686a31.4,31.4,0,0,1-11.287-1.7,8.786,8.786,0,0,0-4.279-.734c-2.04.418-1.776,1.666-2.642,3.17C858.628,423.423,854.1,423.812,853.175,421.192Z" transform="translate(-232.743 -132.727)"/><path class="g" d="M840.056,737.608,862.594,720l35.476-34.947s-4.77-.235-11.742-.528a7.581,7.581,0,0,0-2.473,4.77c-.176,4.271-9.592.3-14.479,2.745s-28.827,33.076-33.024,32.878-7.508-2.128-9.262.844a1.789,1.789,0,0,1-.125.2,4.969,4.969,0,0,1-2.664,1.578Z" transform="translate(-241.178 -223.529)"/><path class="l" d="M783.87,731.977l11.324,36.151,1.776,5.68,5.394-1.468,11.889-3.266,52.956-14.545a46.137,46.137,0,0,0,19.081-5.086,57.723,57.723,0,0,1,32.907-7.177c7,.653,14.788-2.363,21.282-14.3,0,0,14.677-43.3-22.368-55.774s-38.807,6.6-38.807,6.6-.191.1-.5.308c-1.468.917-5.467,3.8-5.614,7.339-.176,4.271-9.592.294-14.479,2.737s-28.827,33.083-33.024,32.885-7.508-2.128-9.262.844c0,.066-.081.125-.125.191-1.292,1.783-5.181,2.2-7.757,2.268-1.4.044-2.422,0-2.422,0l-.33.1-2.745.763Z" transform="translate(-230.418 -219.123)"/><path class="g" d="M787.86,651.25l5.46.866,2.275-22.515s-2.5-.374-5.629-1.1C790.8,631.619,788.917,643.779,787.86,651.25Z" transform="translate(-231.48 -208.621)"/><path class="g" d="M931.022,515.8s16.248-4.719,12.226,41.413-34.066,75.274-34.066,75.274-34.595,15.2-50.146,12.755a266.512,266.512,0,0,0-26.9-2.935,39.476,39.476,0,0,0-15.727-4.19c-8.741-.352-27.08-5.768-27.432-7.515s4.543-27.432,2.444-29.355c0,0,24.46,1.005,26.911,2.774s5.937.5,8.557,0,10.663-7.493,26.559-1.372c0,0,5.416.521,7.515-.873s5.46-.352,5.46-.352,3.3-1.226,3.8-1.959,4.711,0,4.711,0a1.864,1.864,0,0,0,2.627-1.226A11.423,11.423,0,0,1,880,594.4s4.719-26.559,13.628-36.518c0,0,2.62-2.275,1.923-5.071S910.077,510.205,931.022,515.8Z" transform="translate(-231.772 -178.486)"/><path class="n" d="M930.469,510.965s16.248-4.719,12.234,41.413-34.111,75.3-34.111,75.3-34.595,15.2-50.146,12.755-26.9-2.972-26.9-2.972a39.425,39.425,0,0,0-15.727-4.19c-8.733-.352-27.08-5.768-27.432-7.515s4.543-27.432,2.451-29.355c0,0,24.46,1.005,26.9,2.774s5.944.5,8.564,0,10.656-7.486,26.559-1.372c0,0,5.416.521,7.507-.873s5.467-.352,5.467-.352,3.273-1.225,3.794-1.923,4.719,0,4.719,0a1.857,1.857,0,0,0,2.62-1.218,11.4,11.4,0,0,1,2.444-3.846s4.719-26.559,13.628-36.518c0,0,2.62-2.275,1.923-5.064S909.465,505.373,930.469,510.965Z" transform="translate(-231.614 -177.199)"/><path class="g" d="M810,747.067l23.073,27.887c.088-.081.147-.139.147-.161.176-.528,2.444-6.465,1.923-6.818s-4.543-9.085-12.579-12.755a23.648,23.648,0,0,1-9.878-8.99Z" transform="translate(-237.372 -239.952)"/><path class="g" d="M810.252,802.026l2.525,1.468s5.871-4.7,11.676-9.423,11.47-9.357,11.566-9.621c.169-.521,2.436-6.465,1.915-6.81-.271-.183-1.468-2.605-3.669-5.409-15.646-4.4-5.688,6.48-4.359,6.979,0,0-19.081-4.4-20.094,16.373A24.479,24.479,0,0,0,810.252,802.026Z" transform="translate(-237.309 -246.592)"/><path class="n" d="M830.132,810.826l3.325,1.923,33.758.873s7.236,4.4,11.933,5.739a10.209,10.209,0,0,0,1.7.374,75.787,75.787,0,0,0,9.394.176c2.583-.066,4.587-.176,4.587-.176s-1.6-42.565-2.8-46.968c-.572-2.143-3.4-1.673-6.187-.6a40.5,40.5,0,0,0-6.04,3.06s-14.325,1.387-16.6,2.62-8.733-.734-12.755,0-11.177-4.734-11.177-4.734c-19.572-6.458-8.564,5.592-7.17,6.121,0,0-19.037-4.4-20.086,16.373S830.132,810.826,830.132,810.826Z" transform="translate(-237.895 -246.6)"/><path class="n" d="M903.144,794.418c.367,8.807,7.229,19.734,11.316,25.509,2.583-.066,4.587-.176,4.587-.176s-1.6-42.565-2.8-46.968c-.572-2.143-3.4-1.673-6.187-.6C906.7,778.493,902.851,787.322,903.144,794.418Z" transform="translate(-262.156 -246.617)"/><path class="g" d="M903.144,794.418c.367,8.807,7.229,19.734,11.316,25.509,2.583-.066,4.587-.176,4.587-.176s-1.6-42.565-2.8-46.968c-.572-2.143-3.4-1.673-6.187-.6C906.7,778.493,902.851,787.322,903.144,794.418Z" transform="translate(-262.156 -246.617)"/><path class="m" d="M895.084,795.585c2.319,8.5,2.3,18.031,6,23.792a10.216,10.216,0,0,0,1.7.374,75.785,75.785,0,0,0,9.394.176c2.583-.066,4.587-.176,4.587-.176s-1.6-42.565-2.8-46.968c-.572-2.143-3.4-1.673-6.186-.6a40.5,40.5,0,0,0-6.04,3.06S892.119,784.709,895.084,795.585Z" transform="translate(-259.864 -246.617)"/><path class="g" d="M736.77,686.94s16.747,5.438,30.94,24.754Z" transform="translate(-217.884 -224.173)"/><g class="p" transform="translate(559.828 241.107)"><path d="M921.982,401.26a3.406,3.406,0,0,1-.1.367,11.835,11.835,0,0,1-.58,1.468A10.955,10.955,0,0,1,921.982,401.26Z" transform="translate(-826.82 -389.254)"/><path d="M792.963,388.43a15.751,15.751,0,0,1,1.3-3.53c-.088.3-.183.6-.257.91-.888,3.8-.147,7.786.778,11.588.477,1.959,1.123,4.08,2.818,5.174,2.605,1.666,6.6.213,8.748,2.458,1.35,1.431,1.424,3.97,3.185,4.851a3.6,3.6,0,0,0,2.084.242c4.638-.661,7.339-5.871,11.793-7.339a11.85,11.85,0,0,1,7.816.675,5.725,5.725,0,0,1,2.583,1.659c1.468,1.93.448,4.777,1.138,7.111.961,3.244,4.836,4.535,8.19,4.954s7.133.661,9.371,3.2a8.5,8.5,0,0,1,1.666,6.759,5.444,5.444,0,0,0,0,2.5c.925,2.62,5.46,2.2,6.6.161.866-1.5.609-2.752,2.649-3.17a8.687,8.687,0,0,1,4.271.734,31.4,31.4,0,0,0,11.287,1.7c3.134-.11,6.392-.734,8.858-2.686a10.275,10.275,0,0,0,2.715-3.3,11.112,11.112,0,0,1-3.743,5.93c-2.466,1.937-5.717,2.583-8.858,2.686a31.329,31.329,0,0,1-11.28-1.7,8.786,8.786,0,0,0-4.279-.734c-2.04.418-1.783,1.666-2.642,3.17-1.189,2.07-5.717,2.458-6.649-.161a5.444,5.444,0,0,1,0-2.5,8.481,8.481,0,0,0-1.659-6.759c-2.246-2.532-6.025-2.774-9.379-3.192s-7.229-1.71-8.183-4.954c-.7-2.341.352-5.188-1.138-7.119a5.783,5.783,0,0,0-2.59-1.659,12.037,12.037,0,0,0-7.816-.675c-4.462,1.468-7.155,6.693-11.793,7.339a3.6,3.6,0,0,1-2.084-.242c-1.761-.881-1.835-3.42-3.185-4.844-2.121-2.246-6.142-.8-8.74-2.466-1.7-1.093-2.348-3.214-2.825-5.174C792.809,396.216,792.068,392.231,792.963,388.43Z" transform="translate(-792.558 -384.9)"/></g><path class="g" d="M920.831,577.224c-3.2,4.323-6.854,8.322-9.687,12.894s-4.836,9.907-4.242,15.25c2.935-3.009,4.271-7.163,6.121-10.935,3.126-6.385,7.808-11.8,11.742-17.672.734-1.123,5.585-7.6,3.141-7.9C925.895,568.6,921.924,575.749,920.831,577.224Z" transform="translate(-263.132 -192.747)"/></g></svg>