<svg xmlns="http://www.w3.org/2000/svg" width="1493.306" height="977.208" viewBox="0 0 1493.306 977.208"><defs><style>.a{fill:#e6e6e6;}.b{fill:#6c63ff;}.c{fill:#3f3d56;}.d{fill:#a0616a;}.e{fill:#2f2e41;}.f{fill:#fff;}.g{fill:#ccc;}</style></defs><g transform="translate(0 0)"><ellipse class="a" cx="287.276" cy="14.658" rx="287.276" ry="14.658" transform="translate(0 947.892)"/><path class="a" d="M996.257,518.77l-47.633,6.176-2.426.314-63.4,8.219L593.417,571.01c-12.375-8.556-24.054-17.356-34.9-26.365l331.165-19.573,57.28-3.39,2.4-.139Z" transform="translate(125.431 73.783)"/><path class="a" d="M794.251,364.394,542.644,397.027q10.953-9.316,22.87-19.109Z" transform="translate(117.309 -5.187)"/><path class="a" d="M1213.841,507.454q-7.122,11.754-15.324,23.009l-218.61-28.35-120.271-15.6,118.31,7Z" transform="translate(279.465 57.281)"/><path class="b" d="M1230.832,630.436c-80.461,57.628-187.974,92.815-306.074,92.815-96.6,0-207.632-33.086-299.089-81.183,7.233-18.749,17.309-33.945,31.322-41.642.348-.2.708-.395,1.068-.569a44.281,44.281,0,0,1,19.318-4.888c82.426-2.322,73.138,90.552,176.461-37.149,64.257-79.419,137.047-106.747,186.8-97.912.917.163,1.823.337,2.728.522,28.838,5.99,49.467,24.449,55.422,52.114,16.253,75.46-31.345,135.828,55.724,117.253A180.087,180.087,0,0,1,1230.832,630.436Z" transform="translate(159.78 42.858)"/><path class="c" d="M891.253,821.568c-40.493-22.573-65.7-53.392-74.925-91.6-6.849-28.368-4.881-60.29,5.849-94.879a254.119,254.119,0,0,1,35.337-71.38C939.519,447.633,946.921,372,938.689,328.986c-9.025-47.16-38.347-66.746-38.642-66.938l1.266-1.947c.3.2,30.4,20.238,39.639,68.355,5.328,27.74,2.821,59.37-7.45,94.013-12.784,43.114-37.712,91.085-74.092,142.58a251.81,251.81,0,0,0-35.016,70.726c-17.6,56.731-20.087,134.664,67.989,183.764Z" transform="translate(255.268 -58.537)"/><path class="c" d="M826.7,553.608c-31.923-17.795-31.034-46-24.667-66.522a90.191,90.191,0,0,1,12.543-25.337c28.729-40.665,31.325-67.082,28.444-82.082-3.129-16.289-13.167-22.976-13.267-23.042l1.265-1.947c.446.29,10.969,7.3,14.282,24.551,4.314,22.462-5.385,50.676-28.828,83.86a87.856,87.856,0,0,0-12.222,24.684c-6.112,19.705-6.983,46.77,23.58,63.808Z" transform="translate(248.189 -10.157)"/><path class="c" d="M918.805,389.249l-1.13-2.028c30.563-17.038,29.693-44.1,23.58-63.807a87.859,87.859,0,0,0-12.222-24.685c-23.443-33.183-33.141-61.4-28.827-83.86,3.313-17.25,13.836-24.261,14.282-24.551l1.267,1.945c-.1.067-10.19,6.842-13.286,23.135-2.849,14.992-.224,41.386,28.462,81.99a90.193,90.193,0,0,1,12.543,25.337C949.839,343.251,950.727,371.454,918.805,389.249Z" transform="translate(299.707 -94.234)"/><path class="b" d="M978.926,269.713a34.828,34.828,0,0,1-58.348-38.045l.01-.015c10.51-16.11,63.423-33.474,63.423-33.474S989.436,253.6,978.926,269.713Z" transform="translate(307.745 -90.214)"/><path class="b" d="M970.477,198.286a34.828,34.828,0,0,1-58.348-38.045l.01-.015c10.51-16.11,63.423-33.474,63.423-33.474S980.987,182.176,970.477,198.286Z" transform="translate(303.423 -126.751)"/><path class="c" d="M979.148,392.765c-2.229-.522-54.807-12.747-72.337-4.4a35.989,35.989,0,0,0,15.533,68.483,35.4,35.4,0,0,0,7.778-.859,36.1,36.1,0,0,0,7.639-2.635c17.53-8.359,41.166-56.885,42.165-58.952l.638-1.3Zm-42.385,58.488a33.665,33.665,0,1,1-28.953-60.786c4.086-1.95,10.332-2.682,17.46-2.682,19.5,0,45.578,5.514,51.916,6.919-3.959,7.941-25.169,49.281-40.423,56.549Z" transform="translate(293.1 5.588)"/><path class="c" d="M859.181,286.7a35.845,35.845,0,0,1-24.232-9.379c-14.349-13.084-22.867-66.389-23.223-68.652l-.224-1.431,1.446.092c2.286.146,56.149,3.72,70.5,16.8h0A35.973,35.973,0,0,1,859.181,286.7ZM814.26,209.757c1.485,8.741,9.77,54.47,22.254,65.853a33.667,33.667,0,1,0,45.368-49.756h0c-12.482-11.382-58.781-15.423-67.622-16.1Z" transform="translate(254.842 -85.577)"/><path class="b" d="M834.581,320.577a34.828,34.828,0,0,1-46.932,51.471c-14.213-12.96-22.858-67.974-22.858-67.974S820.368,307.617,834.581,320.577Z" transform="translate(230.947 -36.044)"/><path class="c" d="M899.9,321.147a19.91,19.91,0,0,0-19.376-15.684,20.352,20.352,0,0,0-4.249.464c-10.379,2.252-28.826,24.855-29.6,25.807l-.917,1.126,1.3.65c1.022.511,23.242,11.516,34.874,11.516a12.819,12.819,0,0,0,2.763-.267A19.871,19.871,0,0,0,899.9,321.147Zm-4.667,13.7A17.364,17.364,0,0,1,884.2,342.5c-8.335,1.811-29.3-7.813-34.781-10.425,3.9-4.644,19.016-22.069,27.363-23.88a17.545,17.545,0,0,1,18.459,26.655Z" transform="translate(272.366 -35.333)"/><path class="d" d="M285.6,527.941l60.675-60.675a16.067,16.067,0,0,1,26.8,6.9h0a16.066,16.066,0,0,1-4.074,15.82l-38.737,38.737,54.063,43.093-.028.041c.271-.013.537-.041.811-.041a16.454,16.454,0,1,1-16.45,16.529Z" transform="translate(-14.181 45.028)"/><path class="d" d="M306.878,653.841l18-6.719L307.525,574.5l-26.564,9.916Z" transform="translate(143.724 293.883)"/><path class="e" d="M0,0H60.379V23.328H22.5A22.5,22.5,0,0,1,0,.826V0Z" transform="translate(509.55 944.765) rotate(159.528)"/><path class="d" d="M190.986,648.249l19.212,0,9.14-74.1-28.355,0Z" transform="translate(97.696 293.7)"/><path class="e" d="M0,0H60.379V23.328H22.5A22.5,22.5,0,0,1,0,.827V0Z" transform="translate(344.941 959.788) rotate(179.997)"/><path class="e" d="M347.635,520.876s47.011-7.835,62.681,10.969l66.6,307.922-37.609,4.7S426.77,684.632,364.089,642.321c0,0-45.444,141.033-37.609,205.281l-32.908-3.134S283.387,574.155,347.635,520.876Z" transform="translate(-10.403 74.032)"/><path class="a" d="M412.371,607.276l5.393-7.077-.885-.674,3.636-4.771a10.684,10.684,0,0,0-2.022-14.974h0l-13.081-9.969a10.684,10.684,0,0,0-14.974,2.022h0l-30.867,40.505a10.684,10.684,0,0,0,2.022,14.974h0l13.081,9.968a10.684,10.684,0,0,0,14.974-2.022h0l14.422-18.925.885.674,5.393-7.077-.885-.674,2.022-2.654Z" transform="translate(22.541 98.774)"/><circle class="f" cx="5.561" cy="5.561" r="5.561" transform="translate(418.82 681.278)"/><circle class="d" cx="37.125" cy="37.125" r="37.125" transform="translate(311.487 398.544)"/><path class="g" d="M312.551,468.232s34.475-40.743,62.681-7.835h0a112.025,112.025,0,0,1,26.92,76.23l-1.064,35.812-65.032-10.186Z" transform="translate(-0.393 37.355)"/><path class="d" d="M350.781,454.316A16.869,16.869,0,0,0,334.4,474.184L369.983,671.1l-.2.271a16.127,16.127,0,0,0,6.338,24.226h0a16.363,16.363,0,0,0,20.32-6.045,16.051,16.051,0,0,0-3.179-20.945l-.232-.2-25.3-199.347a16.86,16.86,0,0,0-16.732-14.746Z" transform="translate(10.648 40.811)"/><path class="e" d="M383.785,439.181l15.95-18.791c4.111-4.843,8.41-10.117,8.991-16.443.637-6.934-3.58-13.674-9.346-17.577s-12.846-5.373-19.788-5.912c-12.876-1-26.424,1.128-37.009,8.527s-17.509,20.757-14.929,33.411c2.032,9.964,9.52,19.508,6.61,29.251-3.185,10.661-16.244,13.932-26.906,17.111-17.9,5.336-34.987,15.841-44.366,31.991s-9.338,38.418,3.165,52.292c8.1,8.983,20.307,13.526,32.381,14.21s24.091-2.16,35.542-6.049c10.545-3.582,20.977-8.189,29.279-15.613s14.283-18.047,14.024-29.181c-.247-10.611-5.931-20.277-8.266-30.63a50.266,50.266,0,0,1,15.713-47.961" transform="translate(-29.155 2.911)"/><path class="b" d="M325.643,379.343l10.048-1.972a6.444,6.444,0,0,1,7.565,5.083l13.894,46.621h0l-22.7,4.453h0l-13.894-46.62a6.444,6.444,0,0,1,5.083-7.565Z" transform="translate(3.641 1.389)"/><circle class="f" cx="18.274" cy="18.274" r="18.274" transform="translate(333.117 420.371)"/><circle class="b" cx="10.152" cy="10.152" r="10.152" transform="translate(341.239 428.493)"/></g></svg>