<svg xmlns="http://www.w3.org/2000/svg" width="757.397" height="620.511" viewBox="0 0 757.397 620.511"><defs><style>.a{fill:#f2f2f2;}.b{fill:#3f3d56;}.c{fill:#6c63ff;}.d{fill:#fff;}.e{fill:#e6e6e6;}.f{fill:#2f2e41;}.g{fill:#ffb8b8;}.h{fill:#ff6584;}</style></defs><g transform="translate(0 -0.01)"><path class="a" d="M316.361,656.287c47.8-24.781,146.62-66.352,271.354-66.352s223.551,41.572,271.354,66.352c46.538,24.125,83.965,52.569,101.6,75.777,6.427-8.747-3.006-164.363-29.109-226.079A500.171,500.171,0,0,0,470.306,200.25a264.766,264.766,0,0,0-188.452,78.06q-1.573,1.573-3.117,3.168C223.494,338.544,197.7,417.939,207.117,496.8c6.705,56.149,23.23,173.59,46.578,198.491a444.529,444.529,0,0,1,62.666-39.007Z" transform="translate(-205.213 -127.099)"/><ellipse class="a" cx="79.418" cy="16.568" rx="79.418" ry="16.568" transform="translate(308.638 468.213)"/><path class="b" d="M684.833,236.99c-72.8-.007-129.829-13.2-129.827-30.047,0-10.1,20.209-19.105,55.442-24.712a.969.969,0,0,1,.3,1.914c-33.189,5.282-53.808,14.018-53.808,22.8,0,15.231,58.565,28.1,127.89,28.109s127.893-12.856,127.9-28.086c0-8.817-20.748-17.578-54.148-22.863a.969.969,0,1,1,.3-1.914c35.452,5.61,55.784,14.641,55.783,24.778C814.666,223.808,757.635,237,684.833,236.99Z" transform="translate(-216.098 -126.537)"/><path class="c" d="M622.524,244.572a74.587,74.587,0,0,0,129.007-.313,1174.238,1174.238,0,0,1-129.006.314Z" transform="translate(-218.199 -128.468)"/><path class="c" d="M758.347,219.827a74.6,74.6,0,1,0-143.256.761A554.421,554.421,0,0,0,758.347,219.827Z" transform="translate(-217.871 -124.75)"/><circle class="d" cx="8.72" cy="8.72" r="8.72" transform="translate(477.464 24.222)"/><circle class="d" cx="14.533" cy="14.533" r="14.533" transform="translate(426.109 54.255)"/><circle class="d" cx="8.72" cy="8.72" r="8.72" transform="translate(460.024 128.862)"/><ellipse class="e" cx="53.874" cy="8.931" rx="53.874" ry="8.931" transform="translate(336.43 475.708)"/><ellipse class="a" cx="90.641" cy="18.909" rx="90.641" ry="18.909" transform="translate(120.111 550.167)"/><ellipse class="a" cx="135.15" cy="28.195" rx="135.15" ry="28.195" transform="translate(444.745 564.132)"/><ellipse class="e" cx="69.479" cy="11.518" rx="69.479" ry="11.518" transform="translate(140.996 556.951)"/><ellipse class="e" cx="118.788" cy="19.692" rx="118.788" ry="19.692" transform="translate(461.138 570.843)"/><circle class="d" cx="6.782" cy="6.782" r="6.782" transform="translate(49.206 302.292)"/><circle class="d" cx="6.782" cy="6.782" r="6.782" transform="translate(523.959 401.118)"/><path class="f" d="M513.933,320.305c0,17.123,15.833,14.533,35.364,14.533s35.364,2.59,35.364-14.533S576.927,272.83,549.3,272.83C520.715,272.83,513.933,303.182,513.933,320.305Z" transform="translate(-214.82 -129.358)"/><path class="g" d="M469.169,468.256a10.409,10.409,0,0,1,6.058-14.766l40.515-85.706,18.533,13-45.652,80.16a10.465,10.465,0,0,1-19.454,7.316Z" transform="translate(-213.39 -132.312)"/><path class="c" d="M505.033,378.524a4.662,4.662,0,0,1,.535-3.849l12.6-19.748a12.961,12.961,0,1,1,23.695,10.512l-6.345,22.627a4.667,4.667,0,0,1-6.4,3L507.6,381.444A4.662,4.662,0,0,1,505.033,378.524Z" transform="translate(-214.537 -131.672)"/><path class="g" d="M414.8,516.3l-11.162,4.064-20.987-41.117,16.473-6Z" transform="translate(-11.907 -14.726)"/><path class="f" d="M14.424,0H37.332V14.424H0A14.424,14.424,0,0,1,14.424,0Z" transform="matrix(0.94, -0.342, 0.342, 0.94, 369.048, 510.279)"/><path class="f" d="M588.216,611.946l-42.521-74.412a4.672,4.672,0,0,1,.05-4.717l19.147-31.912a4.667,4.667,0,0,1,8.391.815l36.2,100.248a4.649,4.649,0,0,1-2.392,5.8l-12.827,6.076a4.625,4.625,0,0,1-1.98.445,4.69,4.69,0,0,1-4.069-2.346Z" transform="translate(-215.789 -136.384)"/><circle class="g" cx="23.797" cy="23.797" r="23.797" transform="translate(309.171 156.958)"/><path class="c" d="M513.683,420.106c-18.74-41.554.152-64.778,9.145-72.834a14.1,14.1,0,0,1,9.427-3.606h33.523A14.122,14.122,0,0,1,578.41,364.1L556,408.924l-42.135,11.587Z" transform="translate(-214.563 -131.562)"/><path class="g" d="M336.135,527.8H324.257l-5.651-45.816h17.531Z" transform="translate(-9.914 -14.998)"/><path class="f" d="M315.218,525.772h22.908V540.2H300.794A14.424,14.424,0,0,1,315.218,525.772Z" transform="translate(-9.36 -16.36)"/><path class="f" d="M535.964,628.809l-19.018-2.194a4.668,4.668,0,0,1-4.091-5.251l16.973-127.8a3.637,3.637,0,0,0-.071-1.334L512.7,421.85a4.612,4.612,0,0,1,.73-3.8c2.645-3.647,11.71-12.146,38.672-12.308h.029a4.684,4.684,0,0,1,4.26,2.738l3.6,7.912a3.644,3.644,0,0,0,1.214,1.465c4.951,3.5,28.933,23.174,14.851,66.357-13.84,42.445-31.572,124.845-34.987,140.932a4.642,4.642,0,0,1-4.552,3.7A4.763,4.763,0,0,1,535.964,628.809Z" transform="translate(-214.777 -133.493)"/><path class="g" d="M632.768,317.121a10.2,10.2,0,0,0,.264,1.584l-32.309,35.565-11.411-2.459-5.962,16.736,19.778,6.317a7.751,7.751,0,0,0,8.787-3.053l30.54-45.339a10.17,10.17,0,1,0-9.686-9.351Z" transform="translate(-216.98 -130.394)"/><path class="c" d="M598.956,357.025l-7.491,20.707a4.36,4.36,0,0,1-6.168,2.355L565.97,369.675a12.108,12.108,0,1,1,8.3-22.748l21.447,4.343a4.36,4.36,0,0,1,3.234,5.756Z" transform="translate(-216.191 -131.64)"/><path class="f" d="M577.159,309.021h-9.413l-4.152-11.627-.83,11.627h-4.5l-2.422-6.782-.484,6.782H521.932a25.191,25.191,0,0,1,25.191-25.191h4.844a25.191,25.191,0,0,1,25.192,25.192Z" transform="translate(-215.069 -129.7)"/><path class="d" d="M318.862,566.5h-3.391V563.11a4.36,4.36,0,1,0-8.72,0V566.5H303.36a4.36,4.36,0,0,0,0,8.72h3.391v3.391a4.36,4.36,0,1,0,8.72,0v-3.391h3.391a4.36,4.36,0,0,0,0-8.72Z" transform="translate(-208.132 -138.255)"/><path class="h" d="M834.328,480.781h-1.763v-1.763a2.267,2.267,0,0,0-4.534,0v1.763h-1.763a2.267,2.267,0,1,0,0,4.534h1.763v1.763a2.267,2.267,0,1,0,4.534,0v-1.763h1.763a2.267,2.267,0,0,0,0-4.534Z" transform="translate(-224.468 -135.703)"/><path class="c" d="M303.328,359.781h-1.763v-1.763a2.267,2.267,0,1,0-4.534,0v1.763h-1.763a2.267,2.267,0,0,0,0,4.534h1.763v1.763a2.267,2.267,0,1,0,4.534,0v-1.763h1.763a2.267,2.267,0,0,0,0-4.534Z" transform="translate(-207.945 -131.938)"/><path class="d" d="M438.328,359.781h-1.763v-1.763a2.267,2.267,0,1,0-4.534,0v1.763h-1.763a2.267,2.267,0,0,0,0,4.534h1.763v1.763a2.267,2.267,0,1,0,4.534,0v-1.763h1.763a2.267,2.267,0,0,0,0-4.534Z" transform="translate(-212.146 -131.938)"/><path class="d" d="M903.328,599.781h-1.763v-1.763a2.267,2.267,0,1,0-4.534,0v1.763h-1.763a2.267,2.267,0,0,0,0,4.534h1.763v1.763a2.267,2.267,0,1,0,4.534,0v-1.763h1.763a2.267,2.267,0,1,0,0-4.534Z" transform="translate(-226.615 -139.406)"/><path class="d" d="M693.328,404.781h-1.763v-1.763a2.267,2.267,0,0,0-4.534,0v1.763h-1.763a2.267,2.267,0,1,0,0,4.534h1.763v1.763a2.267,2.267,0,0,0,4.534,0v-1.763h1.763a2.267,2.267,0,0,0,0-4.534Z" transform="translate(-220.081 -133.338)"/><path class="d" d="M372.328,454.781h-1.763v-1.763a2.267,2.267,0,0,0-4.534,0v1.763h-1.763a2.267,2.267,0,1,0,0,4.534h1.763v1.763a2.267,2.267,0,0,0,4.534,0v-1.763h1.763a2.267,2.267,0,0,0,0-4.534Z" transform="translate(-210.092 -134.894)"/><path class="d" d="M378.328,288.781h-1.763v-1.763a2.267,2.267,0,0,0-4.534,0v1.763h-1.763a2.267,2.267,0,0,0,0,4.534h1.763v1.763a2.267,2.267,0,1,0,4.534,0v-1.763h1.763a2.267,2.267,0,0,0,0-4.534Z" transform="translate(-210.279 -129.729)"/></g></svg>