<svg xmlns="http://www.w3.org/2000/svg" xmlns:xlink="http://www.w3.org/1999/xlink" width="120" height="120" viewBox="0 0 120 120"><defs><style>.a{clip-path:url(#b);}.b{fill:#ececec;}.c{fill:#333;}</style><clipPath id="b"><rect width="120" height="120"/></clipPath></defs><g id="a" class="a"><rect class="b" width="120" height="120" rx="16"/><g transform="translate(6.856 36.12)"><path class="c" d="M4.312-39.2h32.48l-1.456,9.24H24.3L19.544,0H9.184l4.76-29.96H2.856ZM49.84-3.64Q46.76.84,40.488.84,34.16.84,31.3-3.64a14.472,14.472,0,0,1-1.9-10.416,17.816,17.816,0,0,1,4.732-9.6,13.124,13.124,0,0,1,10-4.06,9.687,9.687,0,0,1,5.544,1.512,8.6,8.6,0,0,1,3.192,3.7l.672-4.368h8.4L57.68,0h-8.4ZM38.976-13.16a6.264,6.264,0,0,0,.7,4.284A3.954,3.954,0,0,0,43.4-7a7.5,7.5,0,0,0,6.44-3.584l1.008-6.1a3.94,3.94,0,0,0-1.54-2.3,4.879,4.879,0,0,0-3-.9,6.659,6.659,0,0,0-4.956,1.96A8.528,8.528,0,0,0,38.976-13.16ZM69.944-40.88h9.52L72.968,0h-9.52Zm30.464,14h10.92L100.184-13.272,107.3,0H97.5L92.232-10.192H89.824L88.2,0H78.68L84.9-39.2h9.52L90.944-17.472h2.072Z" transform="translate(-2.856 40.88)"/></g></g></svg>